<?xml version="1.0" encoding="UTF-8" standalone="no"?>
<!DOCTYPE svg PUBLIC "-//W3C//DTD SVG 1.1//EN" "http://www.w3.org/Graphics/SVG/1.1/DTD/svg11.dtd">
<svg width="100%" height="100%" viewBox="0 0 136 133" version="1.1" xmlns="http://www.w3.org/2000/svg" xmlns:xlink="http://www.w3.org/1999/xlink" xml:space="preserve" xmlns:serif="http://www.serif.com/" style="fill-rule:evenodd;clip-rule:evenodd;stroke-linejoin:round;stroke-miterlimit:2;">
    <path d="M68,-0C105.53,-0 136,29.798 136,66.5C136,103.202 105.53,133 68,133C30.47,133 0,103.202 0,66.5C0,29.798 30.47,-0 68,-0ZM73.722,87.399C71.261,90.238 68.507,92.519 65.459,94.242C62.412,95.964 59.354,96.826 56.288,96.826C52.918,96.826 49.643,95.841 46.463,93.873C43.283,91.904 40.699,88.875 38.711,84.786C36.724,80.697 35.73,76.211 35.73,71.327C35.73,65.307 37.273,59.278 40.358,53.24C43.444,47.201 47.277,42.667 51.858,39.638C56.439,36.61 60.888,35.095 65.204,35.095C68.498,35.095 71.64,35.957 74.631,37.679C77.622,39.402 80.196,42.024 82.354,45.545L84.285,36.742L94.451,36.742L86.273,74.848C85.137,80.148 84.569,83.083 84.569,83.65C84.569,84.673 84.957,85.553 85.733,86.291C86.509,87.029 87.446,87.399 88.544,87.399C90.551,87.399 93.182,86.244 96.438,83.934C100.754,80.906 104.171,76.845 106.689,71.753C109.206,66.661 110.465,61.408 110.465,55.994C110.465,49.671 108.847,43.765 105.61,38.276C102.373,32.786 97.546,28.394 91.128,25.1C84.711,21.807 77.622,20.16 69.861,20.16C61.001,20.16 52.909,22.232 45.583,26.378C38.257,30.524 32.578,36.468 28.546,44.21C24.514,51.952 22.498,60.253 22.498,69.112C22.498,78.388 24.514,86.376 28.546,93.078C32.578,99.779 38.409,104.729 46.037,107.928C53.666,111.127 62.118,112.727 71.394,112.727C81.313,112.727 89.623,111.061 96.325,107.729C103.026,104.398 108.042,100.347 111.374,95.576L121.653,95.576C119.722,99.552 116.409,103.603 111.715,107.729C107.02,111.856 101.436,115.121 94.962,117.526C88.488,119.93 80.688,121.132 71.564,121.132C63.159,121.132 55.408,120.053 48.309,117.895C41.21,115.737 35.162,112.49 30.165,108.155C25.167,103.82 21.4,98.832 18.863,93.191C15.683,86.036 14.093,78.312 14.093,70.021C14.093,60.783 15.986,51.981 19.772,43.614C24.391,33.354 30.95,25.498 39.45,20.046C47.949,14.594 58.257,11.868 70.372,11.868C79.761,11.868 88.194,13.79 95.671,17.632C103.149,21.475 109.045,27.202 113.361,34.811C117.034,41.361 118.87,48.479 118.87,56.164C118.87,67.144 115.008,76.893 107.285,85.411C100.395,93.059 92.86,96.882 84.683,96.882C82.07,96.882 79.96,96.485 78.351,95.69C76.742,94.895 75.558,93.759 74.801,92.283C74.309,91.336 73.949,89.708 73.722,87.399ZM46.236,72.009C46.236,77.195 47.467,81.227 49.927,84.105C52.388,86.982 55.209,88.421 58.389,88.421C60.509,88.421 62.743,87.787 65.09,86.518C67.438,85.25 69.681,83.367 71.82,80.868C73.959,78.369 75.71,75.198 77.073,71.356C78.436,67.513 79.117,63.661 79.117,59.799C79.117,54.65 77.84,50.656 75.284,47.816C72.728,44.977 69.615,43.557 65.942,43.557C63.519,43.557 61.238,44.172 59.099,45.403C56.96,46.633 54.887,48.611 52.88,51.337C50.874,54.063 49.265,57.376 48.053,61.275C46.842,65.175 46.236,68.753 46.236,72.009Z" style="fill:rgb(235,235,235);"/>
</svg>
