<?xml version="1.0" encoding="UTF-8" standalone="no"?>
<!DOCTYPE svg PUBLIC "-//W3C//DTD SVG 1.1//EN" "http://www.w3.org/Graphics/SVG/1.1/DTD/svg11.dtd">
<svg width="100%" height="100%" viewBox="0 0 50 50" version="1.1" xmlns="http://www.w3.org/2000/svg" xmlns:xlink="http://www.w3.org/1999/xlink" xml:space="preserve" xmlns:serif="http://www.serif.com/" style="fill-rule:evenodd;clip-rule:evenodd;stroke-linejoin:round;stroke-miterlimit:2;">
    <g transform="matrix(1.19048,0,0,1.19048,-4.7619,-4.7619)">
        <path d="M41,4L9,4C6.24,4 4,6.24 4,9L4,41C4,43.76 6.24,46 9,46L41,46C43.76,46 46,43.76 46,41L46,9C46,6.24 43.76,4 41,4ZM17,20L17,39L11,39L11,20L17,20ZM11,14.47C11,13.07 12.2,12 14,12C15.8,12 16.93,13.07 17,14.47C17,15.87 15.88,17 14,17C12.2,17 11,15.87 11,14.47ZM39,39L33,39L33,29C33,27 32,25 29.5,24.96L29.42,24.96C27,24.96 26,27.02 26,29L26,39L20,39L20,20L26,20L26,22.56C26,22.56 27.93,20 31.81,20C35.78,20 39,22.73 39,28.26L39,39Z" style="fill:white;fill-rule:nonzero;"/>
    </g>
</svg>
